<svg xmlns="http://www.w3.org/2000/svg" xmlns:xlink="http://www.w3.org/1999/xlink" width="100" height="100"><defs><path id="a" d="M0 0h99.962v99.816H0z"/><path id="c" d="M0 0h45.886v44.3H0z"/><path id="e" d="M0 0h17.113v17.235H0z"/><path id="g" d="M0 0h10.877v9.033H0z"/></defs><g fill="none" fill-rule="evenodd"><mask id="b" fill="#fff"><use xlink:href="#a"/></mask><path fill="#F5F5F5" d="M100 50c0 27.614-22.386 50-50 50S0 77.614 0 50 22.386 0 50 0s50 22.386 50 50" mask="url(#b)"/><path fill="#FFB048" d="M34 33.12L55.85 19l11.536 18.094-21.855 14.122z"/><path fill="#D67F0B" d="M37 39.12L58.85 25l.725 1.137-21.85 14.12z"/><path fill="#FFB048" d="M55.794 19L33 33.73l3.362 5.277 22.795-14.73z"/><path fill="#FFF" d="M48.05 35.466l3.932-2.541L46.933 25 43 27.541z"/><g transform="translate(45 33)"><mask id="d" fill="#fff"><use xlink:href="#c"/></mask><path fill="#F68B1E" d="M0 18.735L28.295.451a2.817 2.817 0 013.908.86l13.235 20.77a2.86 2.86 0 01-.853 3.935L16.292 44.3 0 18.735z" mask="url(#d)"/></g><path fill="#AEAEB5" d="M86.122 65.286L60.566 81.8 25.697 27.073c-.39-.612-.956-1.106-1.638-1.348a3.14 3.14 0 00-2.775.318l-2.387 1.542L17 24.608l2.387-1.542a6.58 6.58 0 015.027-.907 6.614 6.614 0 014.194 2.937l33.018 51.821L87.18 60.406a3.547 3.547 0 01-1.058 4.88"/><g transform="translate(52 71)"><mask id="f" fill="#fff"><use xlink:href="#e"/></mask><path fill="#535353" d="M15.758 3.967c2.55 4.002 1.396 9.335-2.58 11.904-3.974 2.568-9.272 1.404-11.822-2.598-2.553-4.007-1.395-9.34 2.58-11.908 3.975-2.57 9.27-1.405 11.822 2.602" mask="url(#f)"/></g><path fill="#FFF" d="M63.82 77.467a3.197 3.197 0 01-.952 4.395 3.149 3.149 0 01-4.367-.958 3.199 3.199 0 01.952-4.4 3.149 3.149 0 014.368.963"/><g transform="translate(8 24)"><mask id="h" fill="#fff"><use xlink:href="#g"/></mask><path fill="#535353" d="M1.949 8.871a.35.35 0 00.225.153.346.346 0 00.263-.045l8.28-5.35a.356.356 0 00.102-.49L8.922.163A.343.343 0 008.704.01a.345.345 0 00-.263.045L.16 5.404a.347.347 0 00-.15.223.353.353 0 00.042.267L1.949 8.87z" mask="url(#h)"/></g><path fill="#FFF" d="M68.151 42.75c-2.177 1.411-2.805 4.331-1.405 6.522a4.668 4.668 0 006.476 1.415c2.175-1.41 2.804-4.332 1.404-6.522a4.667 4.667 0 00-6.475-1.414"/><path fill="#FFF" d="M72.19 53.602l.7 1.628a.704.704 0 01-.26.873.622.622 0 01-.864-.186l-.934-1.462a.73.73 0 01.217-1.003l.208-.135a.636.636 0 01.933.285zm-4.355-.886a.73.73 0 01-.216 1.005l-.466.302a.813.813 0 01-1.05-.14l-1.025-1.137a.637.637 0 01-.156-.508.673.673 0 01.302-.478l.817-.53a.715.715 0 01.988.225l.806 1.261zm2.598 4.066c.185.29.1.68-.191.868a.692.692 0 01-.895-.123l-1.184-1.315a.65.65 0 01-.16-.517.642.642 0 01.288-.456l.21-.137a.72.72 0 01.998.217l.934 1.463zm-2.387 2.007a.68.68 0 01-.307.483l-.086.056a.864.864 0 01-1.055-.081l-.172-.156a70.628 70.628 0 01-1.127-1.04.578.578 0 01-.18-.476.624.624 0 01.283-.464l.322-.209a.813.813 0 011.05.139l1.117 1.243c.123.136.18.32.155.505zm-4.985-2.884c-.327-.308-.622-.575-.883-.813l-.286-.26a.599.599 0 01-.192-.497.622.622 0 01.284-.475l.666-.432a.804.804 0 011.04.147l1.022 1.139a.649.649 0 01-.128.973l-.468.304a.856.856 0 01-1.055-.086zm12.06-4.195c.192.574.348 1.065.47 1.456l.057.18c.124.39-.012.808-.331 1.015l-.225.146a.608.608 0 01-.51.07.647.647 0 01-.405-.367l-.66-1.538a.827.827 0 01-.064-.36 5.536 5.536 0 01-6.458-2.266A5.604 5.604 0 0166.473 49l-5.8 3.759a.874.874 0 01-1.073-.096l-1.083-1.011a1.206 1.206 0 00-1.485-.13l-1.71 1.116a.715.715 0 00-.21.98.7.7 0 00.97.213l.937-.607a.863.863 0 011.07.1l8.146 7.778a1.194 1.194 0 001.478.14l9.286-6.018a1.22 1.22 0 00.49-1.415l-1.225-3.64a5.6 5.6 0 01-1.27 1.327c.054.062.1.133.127.214z"/><path fill="#F68B1E" d="M68.712 43l2.291 1.383 2.431-1.115-.6 2.622 1.804 1.984-2.66.236-1.316 2.34-1.046-2.475L67 47.437l2.015-1.765z"/><path fill="#FFF" d="M67.914 62.317c-.936.607-1.196 1.888-.579 2.854.619.968 1.884 1.26 2.82.653.938-.608 1.198-1.888.58-2.856-.618-.966-1.883-1.259-2.821-.65m9-6.002c-.937.608-1.196 1.888-.578 2.855.618.967 1.882 1.26 2.82.652.935-.607 1.196-1.887.578-2.855-.618-.966-1.883-1.258-2.82-.652"/></g></svg>